<svg xmlns="http://www.w3.org/2000/svg" xmlns:xlink="http://www.w3.org/1999/xlink" version="1.1" x="0px" y="0px" viewBox="0 0 1024 1280" style="enable-background:new 0 0 1024 1024;" xml:space="preserve"><g><path d="M411.77,541.1l-83.26-83.26c-3.9-3.91-3.9-10.24,0-14.14l83.26-83.26l14.14,14.14l-76.19,76.19l76.19,76.19L411.77,541.1z"/><path d="M612.23,541.1l-14.14-14.14l76.19-76.19l-76.19-76.19l14.14-14.14l83.26,83.26c1.88,1.88,2.93,4.42,2.93,7.07   s-1.05,5.2-2.93,7.07L612.23,541.1z"/><rect x="419.79" y="440.77" transform="matrix(0.335 -0.9422 0.9422 0.335 -84.2272 782.2017)" width="184.42" height="20"/><path d="M830.2,220.09H193.8c-32.82,0-59.52,26.7-59.52,59.52v440.2c0,32.82,26.7,59.52,59.52,59.52h636.4   c32.82,0,59.52-26.7,59.52-59.52v-440.2C889.72,246.79,863.02,220.09,830.2,220.09z M869.72,719.81   c0,21.79-17.73,39.52-39.52,39.52H193.8c-21.79,0-39.52-17.73-39.52-39.52v-440.2c0-21.79,17.73-39.52,39.52-39.52h636.4   c21.79,0,39.52,17.73,39.52,39.52V719.81z"/><g><rect x="437.31" y="769.33" transform="matrix(-1 -1.224647e-16 1.224647e-16 -1 1023.9883 1650.046)" width="149.37" height="111.39"/><path d="M586.68,759.33H437.31c-5.52,0-10,4.47-10,10v111.39c0,5.52,4.48,10,10,10h149.37c5.52,0,10-4.48,10-10V769.33    C596.68,763.8,592.2,759.33,586.68,759.33z M576.68,870.72H447.31v-91.39h129.37V870.72z"/></g><rect x="144.28" y="653.17" width="735.44" height="20"/><rect x="364.09" y="870.72" width="295.82" height="20"/></g><text x="0" y="1039" fill="#000000" font-size="5px" font-weight="bold" font-family="'Helvetica Neue', Helvetica, Arial-Unicode, Arial, Sans-serif">Created by shashank singh</text><text x="0" y="1044" fill="#000000" font-size="5px" font-weight="bold" font-family="'Helvetica Neue', Helvetica, Arial-Unicode, Arial, Sans-serif">from the Noun Project</text></svg>